<svg xmlns="http://www.w3.org/2000/svg" width="800" height="600" viewBox="0 0 800 600">
  <defs>
    <radialGradient id="bgd" cx="35%" cy="25%" r="90%">
      <stop offset="0" stop-color="#1c1c21"/>
      <stop offset="1" stop-color="#0c0c0e"/>
    </radialGradient>
    <linearGradient id="dore" x1="0" y1="0" x2="0" y2="1">
      <stop offset="0" stop-color="#d8b977"/>
      <stop offset="0.5" stop-color="#b3923f"/>
      <stop offset="1" stop-color="#7c6228"/>
    </linearGradient>
    <linearGradient id="doret" x1="0" y1="0" x2="1" y2="0">
      <stop offset="0" stop-color="#e9cf91"/>
      <stop offset="1" stop-color="#c4a155"/>
    </linearGradient>
  </defs>
  <rect width="800" height="600" fill="url(#bgd)"/>
  <ellipse cx="400" cy="452" rx="250" ry="32" fill="#000" opacity="0.45"/>
  <!-- rough doré bar with irregular edges -->
  <polygon points="222,260 250,244 540,238 596,256 612,262 588,300 300,310 232,300" fill="url(#doret)"/>
  <polygon points="222,260 232,300 300,310 588,300 612,262 588,430 246,440 196,420" fill="url(#dore)"/>
  <!-- pitted texture -->
  <g fill="#6b521f" opacity="0.4">
    <circle cx="320" cy="350" r="7"/>
    <circle cx="430" cy="380" r="9"/>
    <circle cx="520" cy="345" r="6"/>
    <circle cx="270" cy="390" r="5"/>
    <circle cx="470" cy="410" r="6"/>
  </g>
  <text x="404" y="356" font-family="system-ui, sans-serif" font-size="20" letter-spacing="3" text-anchor="middle" fill="#5e4a1c" opacity="0.85">DORÉ · ~88%</text>
</svg>
